<?xml version="1.0" standalone="no"?>
<!DOCTYPE svg PUBLIC "-//W3C//DTD SVG 20010904//EN"
 "http://www.w3.org/TR/2001/REC-SVG-20010904/DTD/svg10.dtd">
<svg version="1.0" xmlns="http://www.w3.org/2000/svg"
 width="715.000000pt" height="715.000000pt" viewBox="0 0 715.000000 715.000000"
 preserveAspectRatio="xMidYMid meet">
<metadata>
Created by potrace 1.16, written by Peter Selinger 2001-2019
</metadata>
<g transform="translate(0.000000,715.000000) scale(0.100000,-0.100000)"
fill="#86b499" stroke="none">
<path d="M3548 6955 c-115 -203 -375 -656 -506 -880 -229 -394 -512 -887 -512
-894 0 -3 479 -6 1065 -6 707 0 1065 3 1065 10 0 6 -28 57 -61 115 -34 58
-135 233 -226 390 -91 157 -211 364 -267 460 -82 139 -321 554 -483 838 -13
23 -26 42 -28 42 -3 0 -24 -34 -47 -75z"/>
<path d="M1173 6743 c-38 -43 -152 -175 -254 -292 -101 -118 -219 -256 -263
-305 -43 -50 -107 -125 -143 -166 -129 -149 -211 -292 -255 -447 -19 -67 -23
-102 -23 -243 0 -190 10 -240 80 -387 193 -410 584 -665 1267 -827 209 -50
466 -102 471 -95 2 2 89 157 192 344 104 187 222 398 262 469 40 71 73 130 73
131 0 1 -174 5 -387 8 -214 3 -428 11 -478 17 -306 40 -493 140 -617 329 -71
108 -99 206 -105 367 -9 211 30 393 236 1107 11 37 18 67 16 67 -1 0 -34 -35
-72 -77z"/>
<path d="M5950 6817 c0 -13 38 -160 75 -287 152 -524 193 -739 174 -920 -11
-118 -26 -173 -68 -265 -83 -179 -239 -303 -453 -360 -145 -39 -273 -48 -685
-49 -211 -1 -383 -2 -383 -3 0 -4 258 -472 398 -721 68 -123 131 -226 139
-229 17 -7 248 39 488 97 562 135 942 354 1154 666 52 77 123 230 144 309 60
225 38 434 -68 651 -60 120 -145 234 -354 470 -112 126 -523 601 -548 633 -7
9 -13 12 -13 8z"/>
<path d="M602 3888 c22 -39 398 -671 464 -780 19 -32 36 -48 49 -48 18 0 488
108 490 113 2 2 164 291 254 451 34 60 59 111 57 113 -5 6 -206 35 -801 118
-259 36 -485 68 -504 71 l-33 5 24 -43z"/>
<path d="M6470 3910 c-94 -14 -1004 -145 -1157 -165 -24 -4 -43 -8 -43 -10 0
-2 15 -30 34 -62 47 -81 151 -268 222 -395 l59 -107 215 -52 c118 -29 233 -53
255 -53 l39 -1 258 429 c142 237 258 431 258 433 0 4 -11 3 -140 -17z"/>
<path d="M2028 3198 c7 -106 15 -198 17 -204 3 -10 125 -108 409 -327 56 -43
105 -82 109 -86 10 -10 15 -51 62 -471 31 -272 69 -581 91 -742 8 -57 19 -55
27 4 3 24 22 156 41 293 20 138 57 418 83 622 43 337 46 374 31 385 -23 19
-657 539 -771 632 -54 45 -101 82 -105 84 -4 1 -2 -84 6 -190z"/>
<path d="M4985 3238 c-99 -83 -298 -247 -442 -366 -222 -181 -263 -219 -263
-241 0 -36 83 -679 130 -1014 22 -154 40 -283 40 -288 0 -5 4 -9 8 -9 10 0 31
150 72 510 57 506 88 742 96 750 5 4 115 89 244 190 129 100 245 192 256 204
20 19 23 40 36 219 7 108 11 197 8 197 -3 -1 -86 -69 -185 -152z"/>
<path d="M1425 2797 c-115 -199 -298 -508 -573 -967 -424 -708 -532 -890 -532
-898 0 -6 451 -7 1053 -5 l1052 5 42 181 c23 100 42 197 42 216 1 34 8 23
-685 1161 -82 135 -181 298 -219 362 -39 65 -72 117 -75 117 -3 0 -50 -77
-105 -172z"/>
<path d="M5639 2942 c-43 -72 -573 -949 -624 -1032 -32 -52 -121 -198 -198
-325 l-139 -230 7 -50 c6 -46 53 -261 75 -345 l9 -35 1051 0 c883 0 1049 2
1045 14 -5 14 -153 264 -415 701 -125 209 -342 573 -595 1000 -34 58 -90 153
-125 212 -34 60 -65 110 -69 112 -3 3 -14 -8 -22 -22z"/>
<path d="M2973 983 c-11 -43 -33 -126 -48 -186 -19 -71 -26 -110 -19 -117 5
-5 99 -47 208 -93 l199 -83 48 -84 48 -85 -124 -3 -123 -3 -283 115 c-156 62
-286 112 -288 110 -3 -3 151 -189 336 -406 l48 -57 620 0 620 0 45 55 c25 31
111 133 192 227 81 95 143 173 139 175 -5 2 -133 -47 -284 -108 l-275 -111
-126 3 -126 3 48 84 47 83 208 91 c176 77 207 93 206 111 0 12 -22 95 -48 186
l-48 165 -600 3 -600 2 -20 -77z"/>
</g>
</svg>
