<?xml version="1.0" encoding="iso-8859-1"?>
<!-- Uploaded to: SVG Repo, www.svgrepo.com, Generator: SVG Repo Mixer Tools -->
<svg fill="white" height="800px" width="800px" version="1.1" id="Layer_1" xmlns="http://www.w3.org/2000/svg" xmlns:xlink="http://www.w3.org/1999/xlink" 
	 viewBox="0 0 512 512" xml:space="preserve">
<g>
	<g>
		<g>
			<path d="M256.002,405.333c-11.776,0-21.333,9.557-21.333,21.333S244.226,448,256.002,448c11.776,0,21.333-9.557,21.333-21.333
				S267.778,405.333,256.002,405.333z"/>
			<path d="M405.331,362.582V85.418c0-0.029,0.004-0.056,0.004-0.085s-0.004-0.056-0.004-0.085V66.368
				C405.331,29.711,375.62,0,338.963,0H173.033c-36.657,0-66.368,29.711-66.368,66.368v379.264
				c0,36.657,29.711,66.368,66.368,66.368h165.931c36.657,0,66.368-29.711,66.368-66.368v-82.881c0-0.029,0.004-0.056,0.004-0.085
				S405.331,362.611,405.331,362.582z M149.331,106.667h213.333v234.667H149.331V106.667z M173.033,42.667h165.931
				c12.293,0,22.395,9.353,23.583,21.333H149.449C150.637,52.02,160.739,42.667,173.033,42.667z M338.963,469.333H173.033
				c-13.093,0-23.701-10.609-23.701-23.701V384h213.333v61.632C362.665,458.725,352.056,469.333,338.963,469.333z"/>
			<path d="M207.087,185.752l21.333-21.333c8.331-8.331,8.331-21.839,0-30.17s-21.839-8.331-30.17,0l-21.333,21.333
				c-8.331,8.331-8.331,21.839,0,30.17C185.248,194.083,198.756,194.083,207.087,185.752z"/>
			<path d="M292.42,155.582c-8.331-8.331-21.839-8.331-30.17,0l-64,64c-8.331,8.331-8.331,21.839,0,30.17
				c8.331,8.331,21.839,8.331,30.17,0l64-64C300.752,177.42,300.752,163.913,292.42,155.582z"/>
		</g>
	</g>
</g>
</svg>